<svg width="22" height="22" viewBox="0 0 22 22" fill="none" xmlns="http://www.w3.org/2000/svg">
<path d="M10.9987 17.4173C13.0237 17.4173 14.6654 15.7757 14.6654 13.7507C14.6654 11.7256 13.0237 10.084 10.9987 10.084C8.97365 10.084 7.33203 11.7256 7.33203 13.7507C7.33203 15.7757 8.97365 17.4173 10.9987 17.4173Z" stroke="#989898" stroke-width="1.5" stroke-miterlimit="10" stroke-linecap="round" stroke-linejoin="round"/>
<path d="M9.57031 13.7499L10.1661 14.3457C10.3403 14.5199 10.6245 14.5291 10.7986 14.3549L12.4303 12.8516" stroke="#989898" stroke-width="1.5" stroke-linecap="round" stroke-linejoin="round"/>
<path d="M8.24813 20.1673H13.7481C17.4331 20.1673 18.0931 18.6915 18.2856 16.8948L18.9731 11.3948C19.2206 9.15815 18.579 7.33398 14.6648 7.33398H7.33147C3.4173 7.33398 2.77563 9.15815 3.02313 11.3948L3.71063 16.8948C3.90313 18.6915 4.56313 20.1673 8.24813 20.1673Z" stroke="#989898" stroke-width="1.5" stroke-miterlimit="10" stroke-linecap="round" stroke-linejoin="round"/>
<path d="M6.875 7.0317V6.14253C6.875 4.08003 8.53417 2.0542 10.5967 1.8617C13.0533 1.62336 15.125 3.55753 15.125 5.96836V7.23336" stroke="#989898" stroke-width="1.5" stroke-miterlimit="10" stroke-linecap="round" stroke-linejoin="round"/>
</svg>
