<svg width="22" height="22" viewBox="0 0 22 22" fill="none" xmlns="http://www.w3.org/2000/svg">
<path d="M14.2821 11.0004C14.2821 12.8154 12.8154 14.2821 11.0004 14.2821C9.18542 14.2821 7.71875 12.8154 7.71875 11.0004C7.71875 9.18542 9.18542 7.71875 11.0004 7.71875C12.8154 7.71875 14.2821 9.18542 14.2821 11.0004Z" stroke="#989898" stroke-width="1.5" stroke-linecap="round" stroke-linejoin="round"/>
<path d="M11.0008 18.581C14.2367 18.581 17.2525 16.6743 19.3517 13.3743C20.1767 12.0818 20.1767 9.90932 19.3517 8.61682C17.2525 5.31682 14.2367 3.41016 11.0008 3.41016C7.765 3.41016 4.74917 5.31682 2.65 8.61682C1.825 9.90932 1.825 12.0818 2.65 13.3743C4.74917 16.6743 7.765 18.581 11.0008 18.581Z" stroke="#989898" stroke-width="1.5" stroke-linecap="round" stroke-linejoin="round"/>
</svg>
